<?xml version="1.0" encoding="UTF-8" standalone="no"?>
<!DOCTYPE svg PUBLIC "-//W3C//DTD SVG 1.1//EN" "http://www.w3.org/Graphics/SVG/1.1/DTD/svg11.dtd">
<svg width="100%" height="100%" viewBox="0 0 126 135" version="1.1" xmlns="http://www.w3.org/2000/svg" xmlns:xlink="http://www.w3.org/1999/xlink" xml:space="preserve" xmlns:serif="http://www.serif.com/" style="fill-rule:evenodd;clip-rule:evenodd;stroke-linecap:round;stroke-linejoin:round;stroke-miterlimit:1.5;">
    <g transform="matrix(1,0,0,1,-402.047,-670.777)">
        <g transform="matrix(2.78881,0,0,2.78881,-786.985,-641.825)">
            <g>
                <g transform="matrix(1.00287,0,0,2.52013,-267.028,-66.9341)">
                    <path d="M723.511,227.164L723.511,214.975L704.749,214.975L704.749,227.164" style="fill:rgb(255,217,119);stroke:black;stroke-width:0.34px;"/>
                </g>
                <g transform="matrix(1.82758,0,0,1.18237,-942.287,272.4)">
                    <path d="M766.507,197.188C766.507,198.981 764.2,200.436 761.359,200.436C758.518,200.436 756.211,198.981 756.211,197.188" style="fill:rgb(255,217,119);stroke:black;stroke-width:0.42px;"/>
                </g>
                <g transform="matrix(1.82758,0,0,1.18237,-942.287,272.4)">
                    <path d="M766.507,197.188C766.507,198.981 764.2,200.436 761.359,200.436C758.518,200.436 756.211,198.981 756.211,197.188" style="fill:rgb(255,217,119);stroke:black;stroke-width:0.42px;"/>
                </g>
                <g transform="matrix(1.82758,0,0,1.18237,-942.287,268.56)">
                    <path d="M766.507,197.188C766.507,198.981 764.2,200.436 761.359,200.436C758.518,200.436 756.211,198.981 756.211,197.188" style="fill:rgb(255,217,119);stroke:black;stroke-width:0.42px;"/>
                </g>
                <g transform="matrix(1.82758,0,0,1.18237,-942.287,264.72)">
                    <path d="M766.507,197.188C766.507,198.981 764.2,200.436 761.359,200.436C758.518,200.436 756.211,198.981 756.211,197.188" style="fill:rgb(255,217,119);stroke:black;stroke-width:0.42px;"/>
                </g>
                <g transform="matrix(1.82758,0,0,1.18237,-942.287,260.88)">
                    <path d="M766.507,197.188C766.507,198.981 764.2,200.436 761.359,200.436C758.518,200.436 756.211,198.981 756.211,197.188" style="fill:rgb(255,217,119);stroke:black;stroke-width:0.42px;"/>
                </g>
                <g transform="matrix(1.82758,0,0,1.18237,-942.287,257.04)">
                    <path d="M766.507,197.188C766.507,198.981 764.2,200.436 761.359,200.436C758.518,200.436 756.211,198.981 756.211,197.188" style="fill:rgb(255,217,119);stroke:black;stroke-width:0.42px;"/>
                </g>
                <g transform="matrix(1.82758,0,0,1.18237,-942.287,253.2)">
                    <path d="M766.507,197.188C766.507,198.981 764.2,200.436 761.359,200.436C758.518,200.436 756.211,198.981 756.211,197.188" style="fill:rgb(255,217,119);stroke:black;stroke-width:0.42px;"/>
                </g>
                <g transform="matrix(1.82758,0,0,1.18237,-942.287,249.361)">
                    <path d="M766.507,197.188C766.507,198.981 764.2,200.436 761.359,200.436C758.518,200.436 756.211,198.981 756.211,197.188" style="fill:rgb(255,217,119);stroke:black;stroke-width:0.42px;"/>
                </g>
                <g transform="matrix(1.82758,0,0,1.18237,-942.287,245.521)">
                    <path d="M766.507,197.188C766.507,198.981 764.2,200.436 761.359,200.436C758.518,200.436 756.211,198.981 756.211,197.188" style="fill:rgb(255,217,119);stroke:black;stroke-width:0.42px;"/>
                </g>
                <g transform="matrix(1.82758,0,0,1.18237,-942.287,241.681)">
                    <ellipse cx="761.359" cy="197.188" rx="5.148" ry="3.248" style="fill:rgb(255,217,119);stroke:black;stroke-width:0.42px;"/>
                </g>
                <g transform="matrix(1,0,0,1,-38.4257,-31.956)">
                    <g transform="matrix(1.82758,0,0,1.18237,-903.861,273.637)">
                        <ellipse cx="761.359" cy="197.188" rx="5.148" ry="3.248" style="fill:rgb(255,217,119);stroke:black;stroke-width:0.42px;"/>
                    </g>
                    <g transform="matrix(0.319387,0,0,0.151839,323.662,464.108)">
                        <g transform="matrix(0.73264,0,0,0.762944,134.116,68.452)">
                            <ellipse cx="510.95" cy="289.608" rx="9.321" ry="8.088" style="fill:rgb(210,209,207);stroke:black;stroke-width:1.18px;"/>
                        </g>
                        <g transform="matrix(0.73264,0,0,0.869036,138.608,35.5769)">
                            <ellipse cx="510.95" cy="289.608" rx="9.321" ry="8.088" style="fill:rgb(210,209,207);stroke:black;stroke-width:1.15px;"/>
                        </g>
                        <g transform="matrix(0.73264,0,0,0.749492,143.977,72.7213)">
                            <ellipse cx="510.95" cy="289.608" rx="9.321" ry="8.088" style="fill:rgb(210,209,207);stroke:black;stroke-width:1.19px;"/>
                        </g>
                        <g transform="matrix(1.00385,-0.435125,0.634407,1.46361,-178.689,89.8987)">
                            <circle cx="500.978" cy="278.376" r="3.454" style="fill:rgb(210,209,207);stroke:black;stroke-width:0.57px;"/>
                        </g>
                        <g transform="matrix(0.90824,0.405633,-0.655551,1.46782,253.111,-331.934)">
                            <circle cx="500.978" cy="278.376" r="3.454" style="fill:rgb(210,209,207);stroke:black;stroke-width:1.05px;"/>
                        </g>
                        <g transform="matrix(1.29328,-0.133493,0.201643,1.95352,-194.975,-203.134)">
                            <circle cx="500.978" cy="278.376" r="3.454" style="fill:rgb(210,209,207);stroke:black;stroke-width:0.56px;"/>
                        </g>
                        <g transform="matrix(1.21045,0.258073,-0.377263,1.76948,17.1055,-347.74)">
                            <circle cx="500.978" cy="278.376" r="3.454" style="fill:rgb(210,209,207);stroke:black;stroke-width:0.76px;"/>
                        </g>
                    </g>
                    <g transform="matrix(0.319387,0,0,0.151839,323.7,464.167)">
                        <g transform="matrix(0.73264,0,0,0.762944,134.116,68.452)">
                            <ellipse cx="510.95" cy="289.608" rx="9.321" ry="8.088" style="fill:rgb(255,217,119);"/>
                        </g>
                        <g transform="matrix(0.73264,0,0,0.869036,138.608,35.5769)">
                            <ellipse cx="510.95" cy="289.608" rx="9.321" ry="8.088" style="fill:rgb(255,217,119);"/>
                        </g>
                        <g transform="matrix(0.73264,0,0,0.749492,143.977,72.7213)">
                            <ellipse cx="510.95" cy="289.608" rx="9.321" ry="8.088" style="fill:rgb(255,217,119);"/>
                        </g>
                        <g transform="matrix(1.00385,-0.435125,0.634407,1.46361,-178.689,89.8987)">
                            <circle cx="500.978" cy="278.376" r="3.454" style="fill:rgb(255,217,119);"/>
                        </g>
                        <g transform="matrix(0.90824,0.405633,-0.655551,1.46782,253.111,-331.934)">
                            <circle cx="500.978" cy="278.376" r="3.454" style="fill:rgb(255,217,119);"/>
                        </g>
                        <g transform="matrix(1.29328,-0.133493,0.201643,1.95352,-194.975,-203.134)">
                            <circle cx="500.978" cy="278.376" r="3.454" style="fill:rgb(255,217,119);"/>
                        </g>
                        <g transform="matrix(1.21045,0.258073,-0.377263,1.76948,17.1055,-347.74)">
                            <circle cx="500.978" cy="278.376" r="3.454" style="fill:rgb(255,217,119);"/>
                        </g>
                    </g>
                </g>
            </g>
            <g>
                <g transform="matrix(1.00287,0,0,1.57881,-280.093,152.659)">
                    <path d="M723.511,227.164L723.511,214.975L704.749,214.975L704.749,227.164" style="fill:rgb(255,217,119);stroke:black;stroke-width:0.49px;"/>
                </g>
                <g transform="matrix(1.82758,0,0,1.18237,-955.352,278.16)">
                    <path d="M766.507,197.188C766.507,198.981 764.2,200.436 761.359,200.436C758.518,200.436 756.211,198.981 756.211,197.188" style="fill:rgb(255,217,119);stroke:black;stroke-width:0.42px;"/>
                </g>
                <g transform="matrix(1.82758,0,0,1.18237,-955.352,274.32)">
                    <path d="M766.507,197.188C766.507,198.981 764.2,200.436 761.359,200.436C758.518,200.436 756.211,198.981 756.211,197.188" style="fill:rgb(255,217,119);stroke:black;stroke-width:0.42px;"/>
                </g>
                <g transform="matrix(1.82758,0,0,1.18237,-955.352,270.48)">
                    <path d="M766.507,197.188C766.507,198.981 764.2,200.436 761.359,200.436C758.518,200.436 756.211,198.981 756.211,197.188" style="fill:rgb(255,217,119);stroke:black;stroke-width:0.42px;"/>
                </g>
                <g transform="matrix(1.82758,0,0,1.18237,-955.352,266.595)">
                    <path d="M766.507,197.188C766.507,198.981 764.2,200.436 761.359,200.436C758.518,200.436 756.211,198.981 756.211,197.188" style="fill:rgb(255,217,119);stroke:black;stroke-width:0.42px;"/>
                </g>
                <g transform="matrix(1.82758,0,0,1.18237,-955.352,262.755)">
                    <path d="M766.507,197.188C766.507,198.981 764.2,200.436 761.359,200.436C758.518,200.436 756.211,198.981 756.211,197.188" style="fill:rgb(255,217,119);stroke:black;stroke-width:0.42px;"/>
                </g>
                <g transform="matrix(1.82758,0,0,1.18237,-955.352,258.915)">
                    <ellipse cx="761.359" cy="197.188" rx="5.148" ry="3.248" style="fill:rgb(255,217,119);stroke:black;stroke-width:0.42px;"/>
                </g>
                <g transform="matrix(1,0,0,1,-51.491,-14.7217)">
                    <g transform="matrix(1.82758,0,0,1.18237,-903.861,273.637)">
                        <ellipse cx="761.359" cy="197.188" rx="5.148" ry="3.248" style="fill:rgb(255,217,119);stroke:black;stroke-width:0.42px;"/>
                    </g>
                    <g transform="matrix(0.319387,0,0,0.151839,323.662,464.108)">
                        <g transform="matrix(0.73264,0,0,0.762944,134.116,68.452)">
                            <ellipse cx="510.95" cy="289.608" rx="9.321" ry="8.088" style="fill:rgb(210,209,207);stroke:black;stroke-width:1.18px;"/>
                        </g>
                        <g transform="matrix(0.73264,0,0,0.869036,138.608,35.5769)">
                            <ellipse cx="510.95" cy="289.608" rx="9.321" ry="8.088" style="fill:rgb(210,209,207);stroke:black;stroke-width:1.15px;"/>
                        </g>
                        <g transform="matrix(0.73264,0,0,0.749492,143.977,72.7213)">
                            <ellipse cx="510.95" cy="289.608" rx="9.321" ry="8.088" style="fill:rgb(210,209,207);stroke:black;stroke-width:1.19px;"/>
                        </g>
                        <g transform="matrix(1.00385,-0.435125,0.634407,1.46361,-178.689,89.8987)">
                            <circle cx="500.978" cy="278.376" r="3.454" style="fill:rgb(210,209,207);stroke:black;stroke-width:0.57px;"/>
                        </g>
                        <g transform="matrix(0.90824,0.405633,-0.655551,1.46782,253.111,-331.934)">
                            <circle cx="500.978" cy="278.376" r="3.454" style="fill:rgb(210,209,207);stroke:black;stroke-width:1.05px;"/>
                        </g>
                        <g transform="matrix(1.29328,-0.133493,0.201643,1.95352,-194.975,-203.134)">
                            <circle cx="500.978" cy="278.376" r="3.454" style="fill:rgb(210,209,207);stroke:black;stroke-width:0.56px;"/>
                        </g>
                        <g transform="matrix(1.21045,0.258073,-0.377263,1.76948,17.1055,-347.74)">
                            <circle cx="500.978" cy="278.376" r="3.454" style="fill:rgb(210,209,207);stroke:black;stroke-width:0.76px;"/>
                        </g>
                    </g>
                    <g transform="matrix(0.319387,0,0,0.151839,323.7,464.167)">
                        <g transform="matrix(0.73264,0,0,0.762944,134.116,68.452)">
                            <ellipse cx="510.95" cy="289.608" rx="9.321" ry="8.088" style="fill:rgb(255,217,119);"/>
                        </g>
                        <g transform="matrix(0.73264,0,0,0.869036,138.608,35.5769)">
                            <ellipse cx="510.95" cy="289.608" rx="9.321" ry="8.088" style="fill:rgb(255,217,119);"/>
                        </g>
                        <g transform="matrix(0.73264,0,0,0.749492,143.977,72.7213)">
                            <ellipse cx="510.95" cy="289.608" rx="9.321" ry="8.088" style="fill:rgb(255,217,119);"/>
                        </g>
                        <g transform="matrix(1.00385,-0.435125,0.634407,1.46361,-178.689,89.8987)">
                            <circle cx="500.978" cy="278.376" r="3.454" style="fill:rgb(255,217,119);"/>
                        </g>
                        <g transform="matrix(0.90824,0.405633,-0.655551,1.46782,253.111,-331.934)">
                            <circle cx="500.978" cy="278.376" r="3.454" style="fill:rgb(255,217,119);"/>
                        </g>
                        <g transform="matrix(1.29328,-0.133493,0.201643,1.95352,-194.975,-203.134)">
                            <circle cx="500.978" cy="278.376" r="3.454" style="fill:rgb(255,217,119);"/>
                        </g>
                        <g transform="matrix(1.21045,0.258073,-0.377263,1.76948,17.1055,-347.74)">
                            <circle cx="500.978" cy="278.376" r="3.454" style="fill:rgb(255,217,119);"/>
                        </g>
                    </g>
                </g>
            </g>
            <g>
                <g transform="matrix(1.00287,0,0,0.948781,-254.679,299.361)">
                    <path d="M723.511,227.164L723.511,214.975L704.749,214.975L704.749,227.164" style="fill:rgb(255,217,119);stroke:black;stroke-width:0.66px;"/>
                </g>
                <g transform="matrix(1.82758,0,0,1.18237,-929.938,281.741)">
                    <path d="M766.507,197.188C766.507,198.981 764.2,200.436 761.359,200.436C758.518,200.436 756.211,198.981 756.211,197.188" style="fill:rgb(255,217,119);stroke:black;stroke-width:0.42px;"/>
                </g>
                <g transform="matrix(1.82758,0,0,1.18237,-929.938,277.901)">
                    <path d="M766.507,197.188C766.507,198.981 764.2,200.436 761.359,200.436C758.518,200.436 756.211,198.981 756.211,197.188" style="fill:rgb(255,217,119);stroke:black;stroke-width:0.42px;"/>
                </g>
                <g transform="matrix(1.82758,0,0,1.18237,-929.938,274.061)">
                    <path d="M766.507,197.188C766.507,198.981 764.2,200.436 761.359,200.436C758.518,200.436 756.211,198.981 756.211,197.188" style="fill:rgb(255,217,119);stroke:black;stroke-width:0.42px;"/>
                </g>
                <g transform="matrix(1.82758,0,0,1.18237,-929.938,270.221)">
                    <ellipse cx="761.359" cy="197.188" rx="5.148" ry="3.248" style="fill:rgb(255,217,119);stroke:black;stroke-width:0.42px;"/>
                </g>
                <g transform="matrix(1,0,0,1,-26.0767,-3.41574)">
                    <g transform="matrix(1.82758,0,0,1.18237,-903.861,273.637)">
                        <ellipse cx="761.359" cy="197.188" rx="5.148" ry="3.248" style="fill:rgb(255,217,119);stroke:black;stroke-width:0.42px;"/>
                    </g>
                    <g transform="matrix(0.319387,0,0,0.151839,323.662,464.108)">
                        <g transform="matrix(0.73264,0,0,0.762944,134.116,68.452)">
                            <ellipse cx="510.95" cy="289.608" rx="9.321" ry="8.088" style="fill:rgb(210,209,207);stroke:black;stroke-width:1.18px;"/>
                        </g>
                        <g transform="matrix(0.73264,0,0,0.869036,138.608,35.5769)">
                            <ellipse cx="510.95" cy="289.608" rx="9.321" ry="8.088" style="fill:rgb(210,209,207);stroke:black;stroke-width:1.15px;"/>
                        </g>
                        <g transform="matrix(0.73264,0,0,0.749492,143.977,72.7213)">
                            <ellipse cx="510.95" cy="289.608" rx="9.321" ry="8.088" style="fill:rgb(210,209,207);stroke:black;stroke-width:1.19px;"/>
                        </g>
                        <g transform="matrix(1.00385,-0.435125,0.634407,1.46361,-178.689,89.8987)">
                            <circle cx="500.978" cy="278.376" r="3.454" style="fill:rgb(210,209,207);stroke:black;stroke-width:0.57px;"/>
                        </g>
                        <g transform="matrix(0.90824,0.405633,-0.655551,1.46782,253.111,-331.934)">
                            <circle cx="500.978" cy="278.376" r="3.454" style="fill:rgb(210,209,207);stroke:black;stroke-width:1.05px;"/>
                        </g>
                        <g transform="matrix(1.29328,-0.133493,0.201643,1.95352,-194.975,-203.134)">
                            <circle cx="500.978" cy="278.376" r="3.454" style="fill:rgb(210,209,207);stroke:black;stroke-width:0.56px;"/>
                        </g>
                        <g transform="matrix(1.21045,0.258073,-0.377263,1.76948,17.1055,-347.74)">
                            <circle cx="500.978" cy="278.376" r="3.454" style="fill:rgb(210,209,207);stroke:black;stroke-width:0.76px;"/>
                        </g>
                    </g>
                    <g transform="matrix(0.319387,0,0,0.151839,323.7,464.167)">
                        <g transform="matrix(0.73264,0,0,0.762944,134.116,68.452)">
                            <ellipse cx="510.95" cy="289.608" rx="9.321" ry="8.088" style="fill:rgb(255,217,119);"/>
                        </g>
                        <g transform="matrix(0.73264,0,0,0.869036,138.608,35.5769)">
                            <ellipse cx="510.95" cy="289.608" rx="9.321" ry="8.088" style="fill:rgb(255,217,119);"/>
                        </g>
                        <g transform="matrix(0.73264,0,0,0.749492,143.977,72.7213)">
                            <ellipse cx="510.95" cy="289.608" rx="9.321" ry="8.088" style="fill:rgb(255,217,119);"/>
                        </g>
                        <g transform="matrix(1.00385,-0.435125,0.634407,1.46361,-178.689,89.8987)">
                            <circle cx="500.978" cy="278.376" r="3.454" style="fill:rgb(255,217,119);"/>
                        </g>
                        <g transform="matrix(0.90824,0.405633,-0.655551,1.46782,253.111,-331.934)">
                            <circle cx="500.978" cy="278.376" r="3.454" style="fill:rgb(255,217,119);"/>
                        </g>
                        <g transform="matrix(1.29328,-0.133493,0.201643,1.95352,-194.975,-203.134)">
                            <circle cx="500.978" cy="278.376" r="3.454" style="fill:rgb(255,217,119);"/>
                        </g>
                        <g transform="matrix(1.21045,0.258073,-0.377263,1.76948,17.1055,-347.74)">
                            <circle cx="500.978" cy="278.376" r="3.454" style="fill:rgb(255,217,119);"/>
                        </g>
                    </g>
                </g>
            </g>
        </g>
    </g>
</svg>
