<?xml version="1.0" encoding="UTF-8" standalone="no"?>
<!DOCTYPE svg PUBLIC "-//W3C//DTD SVG 1.1//EN" "http://www.w3.org/Graphics/SVG/1.1/DTD/svg11.dtd">
<svg width="100%" height="100%" viewBox="0 0 126 136" version="1.1" xmlns="http://www.w3.org/2000/svg" xmlns:xlink="http://www.w3.org/1999/xlink" xml:space="preserve" xmlns:serif="http://www.serif.com/" style="fill-rule:evenodd;clip-rule:evenodd;stroke-linecap:round;stroke-linejoin:round;stroke-miterlimit:1.5;">
    <g transform="matrix(1,0,0,1,-247.838,-660.376)">
        <g transform="matrix(2.78881,0,0,2.78881,-786.985,-641.825)">
            <g transform="matrix(1,0,0,1,-319.921,224.026)">
                <g transform="matrix(1.00287,0,0,2.52013,-2.58897,-294.69)">
                    <path d="M723.511,227.164L723.511,214.975L704.749,214.975L704.749,227.164" style="fill:rgb(255,217,119);stroke:black;stroke-width:0.34px;"/>
                </g>
                <g transform="matrix(1.82758,0,0,1.18237,-677.848,44.6445)">
                    <path d="M766.507,197.188C766.507,198.981 764.2,200.436 761.359,200.436C758.518,200.436 756.211,198.981 756.211,197.188" style="fill:rgb(255,217,119);stroke:black;stroke-width:0.42px;"/>
                </g>
                <g transform="matrix(1.82758,0,0,1.18237,-677.848,44.6445)">
                    <path d="M766.507,197.188C766.507,198.981 764.2,200.436 761.359,200.436C758.518,200.436 756.211,198.981 756.211,197.188" style="fill:rgb(255,217,119);stroke:black;stroke-width:0.42px;"/>
                </g>
                <g transform="matrix(1.82758,0,0,1.18237,-677.848,40.8045)">
                    <path d="M766.507,197.188C766.507,198.981 764.2,200.436 761.359,200.436C758.518,200.436 756.211,198.981 756.211,197.188" style="fill:rgb(255,217,119);stroke:black;stroke-width:0.42px;"/>
                </g>
                <g transform="matrix(1.82758,0,0,1.18237,-677.848,36.9645)">
                    <path d="M766.507,197.188C766.507,198.981 764.2,200.436 761.359,200.436C758.518,200.436 756.211,198.981 756.211,197.188" style="fill:rgb(255,217,119);stroke:black;stroke-width:0.42px;"/>
                </g>
                <g transform="matrix(1.82758,0,0,1.18237,-677.848,33.1246)">
                    <path d="M766.507,197.188C766.507,198.981 764.2,200.436 761.359,200.436C758.518,200.436 756.211,198.981 756.211,197.188" style="fill:rgb(255,217,119);stroke:black;stroke-width:0.42px;"/>
                </g>
                <g transform="matrix(1.82758,0,0,1.18237,-677.848,29.2846)">
                    <path d="M766.507,197.188C766.507,198.981 764.2,200.436 761.359,200.436C758.518,200.436 756.211,198.981 756.211,197.188" style="fill:rgb(255,217,119);stroke:black;stroke-width:0.42px;"/>
                </g>
                <g transform="matrix(1.82758,0,0,1.18237,-677.848,25.4447)">
                    <path d="M766.507,197.188C766.507,198.981 764.2,200.436 761.359,200.436C758.518,200.436 756.211,198.981 756.211,197.188" style="fill:rgb(255,217,119);stroke:black;stroke-width:0.42px;"/>
                </g>
                <g transform="matrix(1.82758,0,0,1.18237,-677.848,21.6047)">
                    <path d="M766.507,197.188C766.507,198.981 764.2,200.436 761.359,200.436C758.518,200.436 756.211,198.981 756.211,197.188" style="fill:rgb(255,217,119);stroke:black;stroke-width:0.42px;"/>
                </g>
                <g transform="matrix(1.82758,0,0,1.18237,-677.848,17.7647)">
                    <path d="M766.507,197.188C766.507,198.981 764.2,200.436 761.359,200.436C758.518,200.436 756.211,198.981 756.211,197.188" style="fill:rgb(255,217,119);stroke:black;stroke-width:0.42px;"/>
                </g>
                <g transform="matrix(1.82758,0,0,1.18237,-677.848,13.9248)">
                    <ellipse cx="761.359" cy="197.188" rx="5.148" ry="3.248" style="fill:rgb(255,217,119);stroke:black;stroke-width:0.42px;"/>
                </g>
            </g>
            <g transform="matrix(1,0,0,1,-322.353,225.36)">
                <g transform="matrix(1.00287,0,0,1.57881,-13.0357,-76.1712)">
                    <path d="M723.511,227.164L723.511,214.975L704.749,214.975L704.749,227.164" style="fill:rgb(255,217,119);stroke:black;stroke-width:0.49px;"/>
                </g>
                <g transform="matrix(1.82758,0,0,1.18237,-688.295,49.3297)">
                    <path d="M766.507,197.188C766.507,198.981 764.2,200.436 761.359,200.436C758.518,200.436 756.211,198.981 756.211,197.188" style="fill:rgb(255,217,119);stroke:black;stroke-width:0.42px;"/>
                </g>
                <g transform="matrix(1.82758,0,0,1.18237,-688.295,45.4898)">
                    <path d="M766.507,197.188C766.507,198.981 764.2,200.436 761.359,200.436C758.518,200.436 756.211,198.981 756.211,197.188" style="fill:rgb(255,217,119);stroke:black;stroke-width:0.42px;"/>
                </g>
                <g transform="matrix(1.82758,0,0,1.18237,-688.295,41.6498)">
                    <path d="M766.507,197.188C766.507,198.981 764.2,200.436 761.359,200.436C758.518,200.436 756.211,198.981 756.211,197.188" style="fill:rgb(255,217,119);stroke:black;stroke-width:0.42px;"/>
                </g>
                <g transform="matrix(1.82758,0,0,1.18237,-688.295,37.7644)">
                    <path d="M766.507,197.188C766.507,198.981 764.2,200.436 761.359,200.436C758.518,200.436 756.211,198.981 756.211,197.188" style="fill:rgb(255,217,119);stroke:black;stroke-width:0.42px;"/>
                </g>
                <g transform="matrix(1.82758,0,0,1.18237,-688.295,33.9244)">
                    <path d="M766.507,197.188C766.507,198.981 764.2,200.436 761.359,200.436C758.518,200.436 756.211,198.981 756.211,197.188" style="fill:rgb(255,217,119);stroke:black;stroke-width:0.42px;"/>
                </g>
                <g transform="matrix(1.82758,0,0,1.18237,-688.295,30.0844)">
                    <ellipse cx="761.359" cy="197.188" rx="5.148" ry="3.248" style="fill:rgb(255,217,119);stroke:black;stroke-width:0.42px;"/>
                </g>
            </g>
            <g transform="matrix(1.00287,0,0,0.948781,-309.974,295.891)">
                <path d="M723.511,227.164L723.511,214.975L704.749,214.975L704.749,227.164" style="fill:rgb(255,217,119);stroke:black;stroke-width:0.66px;"/>
            </g>
            <g transform="matrix(1.82758,0,0,1.18237,-985.233,278.271)">
                <path d="M766.507,197.188C766.507,198.981 764.2,200.436 761.359,200.436C758.518,200.436 756.211,198.981 756.211,197.188" style="fill:rgb(255,217,119);stroke:black;stroke-width:0.42px;"/>
            </g>
            <g transform="matrix(1.82758,0,0,1.18237,-985.233,274.431)">
                <path d="M766.507,197.188C766.507,198.981 764.2,200.436 761.359,200.436C758.518,200.436 756.211,198.981 756.211,197.188" style="fill:rgb(255,217,119);stroke:black;stroke-width:0.42px;"/>
            </g>
            <g transform="matrix(1.82758,0,0,1.18237,-985.233,270.591)">
                <path d="M766.507,197.188C766.507,198.981 764.2,200.436 761.359,200.436C758.518,200.436 756.211,198.981 756.211,197.188" style="fill:rgb(255,217,119);stroke:black;stroke-width:0.42px;"/>
            </g>
            <g transform="matrix(1.82758,0,0,1.18237,-985.233,266.751)">
                <ellipse cx="761.359" cy="197.188" rx="5.148" ry="3.248" style="fill:rgb(255,217,119);stroke:black;stroke-width:0.42px;"/>
            </g>
        </g>
    </g>
</svg>
