<?xml version="1.0" encoding="UTF-8" standalone="no"?>
<!DOCTYPE svg PUBLIC "-//W3C//DTD SVG 1.1//EN" "http://www.w3.org/Graphics/SVG/1.1/DTD/svg11.dtd">
<svg width="100%" height="100%" viewBox="0 0 97 98" version="1.1" xmlns="http://www.w3.org/2000/svg" xmlns:xlink="http://www.w3.org/1999/xlink" xml:space="preserve" xmlns:serif="http://www.serif.com/" style="fill-rule:evenodd;clip-rule:evenodd;stroke-linecap:round;stroke-linejoin:round;stroke-miterlimit:1.5;">
    <g transform="matrix(1,0,0,1,-622.879,-531.186)">
        <g transform="matrix(2.2738,0,0,2.2738,-601.97,-677.005)">
            <g transform="matrix(2.23566,0,0,2.05049,-1763.11,114.648)">
                <path d="M1048.54,214.576C1048.54,219.788 1044.31,224.02 1039.1,224.02C1033.88,224.02 1029.65,219.788 1029.65,214.576" style="fill:rgb(213,184,111);stroke:black;stroke-width:0.12px;"/>
            </g>
            <g transform="matrix(2.36936,0,0,2.36936,-1924.71,210.344)">
                <path d="M1048.65,145.352L1048.65,153.425" style="fill:none;stroke:black;stroke-width:0.07px;"/>
                <path d="M1048.65,145.352L1056.92,148.308" style="fill:none;stroke:black;stroke-width:0.07px;"/>
                <path d="M1048.65,145.352L1057.38,146.897" style="fill:none;stroke:black;stroke-width:0.07px;"/>
                <path d="M1048.65,145.352L1056.25,149.585" style="fill:none;stroke:black;stroke-width:0.07px;"/>
                <path d="M1048.65,145.352L1055.46,150.649" style="fill:none;stroke:black;stroke-width:0.07px;"/>
                <path d="M1048.65,145.352L1054.38,151.498" style="fill:none;stroke:black;stroke-width:0.07px;"/>
                <path d="M1048.65,145.352L1053.17,152.272" style="fill:none;stroke:black;stroke-width:0.07px;"/>
                <path d="M1048.65,145.352L1051.74,152.939" style="fill:none;stroke:black;stroke-width:0.07px;"/>
                <path d="M1048.65,145.352L1050.18,153.272" style="fill:none;stroke:black;stroke-width:0.07px;"/>
                <g transform="matrix(-1,0,0,1,2097.3,-0.0424979)">
                    <path d="M1048.65,145.352L1048.65,153.425" style="fill:none;stroke:black;stroke-width:0.07px;"/>
                </g>
                <g transform="matrix(-1,0,0,1,2097.3,-0.0424979)">
                    <path d="M1048.65,145.352L1056.92,148.308" style="fill:none;stroke:black;stroke-width:0.07px;"/>
                </g>
                <g transform="matrix(-1,0,0,1,2097.3,-0.0424979)">
                    <path d="M1048.65,145.352L1057.38,146.897" style="fill:none;stroke:black;stroke-width:0.07px;"/>
                </g>
                <g transform="matrix(-1,0,0,1,2097.3,-0.0424979)">
                    <path d="M1048.65,145.352L1056.25,149.585" style="fill:none;stroke:black;stroke-width:0.07px;"/>
                </g>
                <g transform="matrix(-1,0,0,1,2097.3,-0.0424979)">
                    <path d="M1048.65,145.352L1055.46,150.649" style="fill:none;stroke:black;stroke-width:0.07px;"/>
                </g>
                <g transform="matrix(-1,0,0,1,2097.3,-0.0424979)">
                    <path d="M1048.65,145.352L1054.38,151.498" style="fill:none;stroke:black;stroke-width:0.07px;"/>
                </g>
                <g transform="matrix(-1,0,0,1,2097.3,-0.0424979)">
                    <path d="M1048.65,145.352L1053.17,152.272" style="fill:none;stroke:black;stroke-width:0.07px;"/>
                </g>
                <g transform="matrix(-1,0,0,1,2097.3,-0.0424979)">
                    <path d="M1048.65,145.352L1051.74,152.939" style="fill:none;stroke:black;stroke-width:0.07px;"/>
                </g>
                <g transform="matrix(-1,0,0,1,2097.3,-0.0424979)">
                    <path d="M1048.65,145.352L1050.18,153.272" style="fill:none;stroke:black;stroke-width:0.07px;"/>
                </g>
            </g>
            <g transform="matrix(2.23566,0,0,2.02549,-1763.14,115.992)">
                <circle cx="1039.1" cy="214.576" r="9.444" style="fill:rgb(255,217,119);stroke:black;stroke-width:0.12px;"/>
            </g>
            <g transform="matrix(1.86898,0,0,1.68941,-1382.12,188.108)">
                <circle cx="1039.1" cy="214.576" r="9.444" style="fill:rgb(255,232,172);stroke:black;stroke-width:0.1px;"/>
            </g>
            <g transform="matrix(0.859451,0,0,0.859451,119.055,307.982)">
                <g transform="matrix(0.73264,0,0,0.762944,134.116,68.452)">
                    <ellipse cx="510.95" cy="289.608" rx="9.321" ry="8.088" style="fill:rgb(236,212,148);"/>
                </g>
                <g transform="matrix(0.73264,0,0,0.869036,138.608,35.5769)">
                    <ellipse cx="510.95" cy="289.608" rx="9.321" ry="8.088" style="fill:rgb(236,212,148);"/>
                </g>
                <g transform="matrix(0.73264,0,0,0.749492,143.977,72.7213)">
                    <ellipse cx="510.95" cy="289.608" rx="9.321" ry="8.088" style="fill:rgb(236,212,148);"/>
                </g>
                <g transform="matrix(1.00385,-0.435125,0.634407,1.46361,-178.689,89.8987)">
                    <circle cx="500.978" cy="278.376" r="3.454" style="fill:rgb(236,212,148);"/>
                </g>
                <g transform="matrix(0.90824,0.405633,-0.655551,1.46782,253.111,-331.934)">
                    <circle cx="500.978" cy="278.376" r="3.454" style="fill:rgb(236,212,148);"/>
                </g>
                <g transform="matrix(1.29328,-0.133493,0.201643,1.95352,-194.975,-203.134)">
                    <circle cx="500.978" cy="278.376" r="3.454" style="fill:rgb(236,212,148);"/>
                </g>
                <g transform="matrix(1.21045,0.258073,-0.377263,1.76948,17.1055,-347.74)">
                    <circle cx="500.978" cy="278.376" r="3.454" style="fill:rgb(236,212,148);"/>
                </g>
            </g>
            <g>
                <g transform="matrix(0.629668,0,0,0.655713,234.333,367.071)">
                    <path d="M525.127,282.175C529.937,282.488 533.73,285.918 533.73,290.097C533.73,290.748 533.638,291.38 533.465,291.985" style="fill:none;stroke:rgb(185,175,152);stroke-width:0.27px;"/>
                </g>
                <g transform="matrix(0.629668,0,0,0.655713,234.333,367.071)">
                    <path d="M532.885,293.405C532.447,294.218 531.853,294.958 531.135,295.596" style="fill:none;stroke:rgb(185,175,152);stroke-width:0.27px;"/>
                </g>
                <g transform="matrix(0.629668,0,0,0.655713,234.333,367.071)">
                    <path d="M530.622,296.018C528.973,297.276 526.795,298.042 524.41,298.042C521.987,298.042 519.78,297.253 518.122,295.96L517.485,295.372C515.802,296.808 513.494,297.695 510.95,297.695C505.806,297.695 501.629,294.071 501.629,289.608C501.629,285.618 504.966,282.299 509.348,281.639L509.348,281.648C511.023,279.193 513.863,277.577 517.082,277.577C520.525,277.577 523.535,279.427 525.149,282.175" style="fill:none;stroke:rgb(185,175,152);stroke-width:0.27px;"/>
                </g>
                <g transform="matrix(0.862763,-0.373968,0.545242,1.2579,-34.5074,385.503)">
                    <circle cx="500.978" cy="278.376" r="3.454" style="fill:none;stroke:rgb(185,175,152);stroke-width:0.15px;"/>
                </g>
                <g transform="matrix(0.780588,0.348622,-0.563414,1.26152,336.604,22.9585)">
                    <circle cx="500.978" cy="278.376" r="3.454" style="fill:none;stroke:rgb(185,175,152);stroke-width:0.15px;"/>
                </g>
                <g transform="matrix(1.11151,-0.114731,0.173302,1.67895,-48.5043,133.656)">
                    <circle cx="500.978" cy="278.376" r="3.454" style="fill:none;stroke:rgb(185,175,152);stroke-width:0.12px;"/>
                </g>
                <g transform="matrix(1.04032,0.221801,-0.324239,1.52078,133.769,9.37459)">
                    <circle cx="500.978" cy="278.376" r="3.454" style="fill:none;stroke:rgb(185,175,152);stroke-width:0.13px;"/>
                </g>
            </g>
            <g transform="matrix(2.36936,0,0,0.862025,-1923.13,409.14)">
                <path d="M1056.89,162.922L1056.89,168.781" style="fill:none;stroke:black;stroke-width:0.15px;"/>
            </g>
            <g transform="matrix(2.36936,0,0,0.862025,-1965.36,409.14)">
                <path d="M1056.89,162.922L1056.89,168.781" style="fill:none;stroke:black;stroke-width:0.15px;"/>
            </g>
        </g>
    </g>
</svg>
