<?xml version="1.0" encoding="UTF-8" standalone="no"?>
<!DOCTYPE svg PUBLIC "-//W3C//DTD SVG 1.1//EN" "http://www.w3.org/Graphics/SVG/1.1/DTD/svg11.dtd">
<svg width="100%" height="100%" viewBox="0 0 86 190" version="1.1" xmlns="http://www.w3.org/2000/svg" xmlns:xlink="http://www.w3.org/1999/xlink" xml:space="preserve" xmlns:serif="http://www.serif.com/" style="fill-rule:evenodd;clip-rule:evenodd;stroke-linecap:round;stroke-linejoin:round;stroke-miterlimit:1.5;">
    <g transform="matrix(1,0,0,1,-659.063,-1012.25)">
        <g transform="matrix(0.524486,0,0,0.480253,515.429,706.53)">
            <path d="M345.471,832.815C344.33,832.958 320.838,836.097 316.927,835.663C295.633,833.297 288.655,822.383 282.65,807.612C275.341,789.63 281.051,763.889 290.995,749.329C307.917,724.554 334.806,709.765 366.128,720.651C403.064,733.488 397.428,774.106 400.501,781.704C410.049,805.305 401.974,824.507 379.672,830.177C366.339,833.566 358.709,831.161 345.471,832.815Z" style="fill:none;stroke:black;stroke-width:1.99px;"/>
        </g>
        <g transform="matrix(0.455284,0,0,0.31147,538.987,843.494)">
            <path d="M349.447,793.518C349.447,793.518 339.445,785.923 349.444,786.075C359.43,786.227 349.447,793.518 349.447,793.518Z" style="fill:none;stroke:black;stroke-width:2.56px;"/>
        </g>
        <g transform="matrix(0.455284,0,0,0.31147,538.987,843.494)">
            <path d="M346.655,788.524C341.859,785.855 336.485,784.499 332.187,789.871C328.74,794.18 328.298,804.399 332.251,808.395C336.268,812.456 341.079,812.253 345.262,808.689C347.759,806.562 348.638,802.597 349.671,802.597C350.736,802.597 350.403,806.373 354.602,808.821C358.736,811.231 361.65,811.357 365.406,810.187C371.698,808.227 371.831,794.814 366.938,789.615C363.363,785.816 357.704,784.932 352.126,788.486" style="fill:none;stroke:black;stroke-width:2.56px;"/>
        </g>
        <g transform="matrix(0.455284,0,0,0.31147,538.987,843.494)">
            <path d="M338.482,780.796C336.296,780.419 336.166,766.946 339.385,766.939C341.924,766.933 341.098,781.247 338.482,780.796Z" style="fill:none;stroke:black;stroke-width:2.56px;"/>
        </g>
        <g transform="matrix(0.46707,0,0,0.283849,535.883,864.718)">
            <path d="M338.677,763.523C334.405,761.897 332.255,768.443 331.633,770.704C331.162,772.413 330.66,775.725 330.605,778.902" style="fill:none;stroke:black;stroke-width:2.59px;"/>
        </g>
        <g transform="matrix(0.455284,0,0,0.31147,538.987,843.494)">
            <path d="M358.088,780.909C355.845,780.043 355.74,767.224 358.242,767.282C361.574,767.359 360.218,781.731 358.088,780.909Z" style="fill:none;stroke:black;stroke-width:2.56px;"/>
        </g>
        <g transform="matrix(0.385808,0,0,0.27335,563.775,873.066)">
            <path d="M356.361,763.645C359.493,761.45 363.029,764.428 364.479,768.207C365.824,771.709 365.954,776.94 365.809,779.782" style="fill:none;stroke:black;stroke-width:2.99px;"/>
        </g>
        <g transform="matrix(0.455284,0,0,0.31147,538.987,843.494)">
            <path d="M363.761,795.941C362.047,796.589 372.328,786.73 373.089,786.198C376.388,783.888 387.075,778.606 390.829,777.241" style="fill:none;stroke:black;stroke-width:2.56px;"/>
        </g>
        <g transform="matrix(0.455284,0,0,0.31147,538.987,843.494)">
            <path d="M366.913,799.871C374.667,794.169 376.075,792.524 385.371,791.697C390.974,791.199 390.093,791.76 395.354,792.572" style="fill:none;stroke:black;stroke-width:2.56px;"/>
        </g>
        <g transform="matrix(0.455284,0,0,0.31147,538.987,843.494)">
            <path d="M337.387,798.385C336.728,796.135 332.215,792.42 325.368,791.763C313.437,790.618 314.694,790.149 303.185,790.149" style="fill:none;stroke:black;stroke-width:2.56px;"/>
        </g>
        <g transform="matrix(0.455284,0,0,0.31147,538.987,843.494)">
            <path d="M334.631,801.205C326.565,796.92 313.722,798.642 305.717,802.598" style="fill:none;stroke:black;stroke-width:2.56px;"/>
        </g>
        <g transform="matrix(0.524486,0,0,0.406437,515.429,760.102)">
            <path d="M322.321,722.171C314.479,713.833 313.445,690.126 312.507,684.5C311.402,677.866 311.668,626.758 324.984,621.905C332.197,619.276 337.971,640.701 338.906,645.12C341.838,658.972 341.601,662.879 340.123,684.453" style="fill:none;stroke:black;stroke-width:2.13px;"/>
        </g>
        <g transform="matrix(0.524486,0,0,0.406437,515.429,760.102)">
            <path d="M339.327,715.116C338.204,692.675 341.963,660.113 346.738,639.651C347.996,634.258 351.491,619.325 361.671,621.905C372.921,624.756 369.121,669.338 368.56,678.38C367.283,698.993 362.45,713.669 360.411,717.643" style="fill:none;stroke:black;stroke-width:2.13px;"/>
        </g>
        <g transform="matrix(0.524486,0,0,0.524486,515.429,674.814)">
            <path d="M314.89,828.687C301.624,846.936 285.8,878.736 282.54,893.47C278.497,911.747 284.933,937.629 307.25,944.884C317.704,948.282 356.908,949.508 367.872,947.344C391.406,942.702 399.951,925.291 401.598,902.411C402.851,885 378.21,831.071 373.588,823.377" style="fill:none;stroke:black;stroke-width:1.91px;"/>
        </g>
        <g transform="matrix(0.524486,0,0,0.524486,515.429,674.814)">
            <path d="M303.432,825.1C302.711,824.109 292.449,835.499 290.87,837.709C282.761,849.062 274.808,867.106 274.808,880.826C274.808,887.027 276.382,895.885 282.745,898.006" style="fill:none;stroke:black;stroke-width:1.91px;"/>
        </g>
        <g transform="matrix(0.524486,0,0,0.524486,515.429,674.814)">
            <path d="M374.434,823.351C378.196,822.568 392.946,818.758 401.802,807.296C409.19,797.734 413.272,784.584 415.741,782.116C419.169,778.687 427.739,775.477 431.563,780.405C443.569,795.875 432.483,802.92 420.486,816.631C414.275,823.729 409.033,827.75 400.652,833.167C396.342,835.953 383.507,841.443 383.507,841.443" style="fill:none;stroke:black;stroke-width:1.91px;"/>
        </g>
        <g transform="matrix(0.582002,-0.0230824,0.0368302,0.482728,459.224,724.16)">
            <path d="M314.698,940.272L307.548,975.409" style="fill:none;stroke:black;stroke-width:1.83px;"/>
        </g>
        <g transform="matrix(0.584282,0,0,0.493655,492.794,707.022)">
            <path d="M326.738,980.864C326.738,980.864 319.168,972.698 307.056,974.744C300.888,975.786 300.903,995.58 305.55,997.537C312.252,1000.36 316.351,999.379 324.393,1000.42C334.155,1001.69 336.232,963.965 337.055,955.737C337.297,953.317 338.754,944.607 337.055,942.908" style="fill:none;stroke:black;stroke-width:1.85px;"/>
        </g>
        <g transform="matrix(0.565175,-0.0734156,0.0817184,0.531156,431.778,693.956)">
            <path d="M337.496,947.358C334.497,946.177 334.917,963.559 334.917,965.145C334.917,970.192 333.268,996.425 337.055,1000.21C341.047,1004.2 358.577,1004.8 362.41,1000.97C369.925,993.452 370.279,983.011 358.133,981.296C347.426,979.784 341.941,983.016 341.941,983.016" style="fill:none;stroke:black;stroke-width:1.78px;"/>
        </g>
        <g transform="matrix(0.565095,-0.0740834,0.0873949,0.581849,426.283,644.762)">
            <path d="M361.112,949.133L360.148,980.54" style="fill:none;stroke:black;stroke-width:1.71px;"/>
        </g>
    </g>
</svg>
