<?xml version="1.0" encoding="UTF-8" standalone="no"?>
<!DOCTYPE svg PUBLIC "-//W3C//DTD SVG 1.1//EN" "http://www.w3.org/Graphics/SVG/1.1/DTD/svg11.dtd">
<svg width="100%" height="100%" viewBox="0 0 208 201" version="1.1" xmlns="http://www.w3.org/2000/svg" xmlns:xlink="http://www.w3.org/1999/xlink" xml:space="preserve" xmlns:serif="http://www.serif.com/" style="fill-rule:evenodd;clip-rule:evenodd;stroke-linecap:round;stroke-linejoin:round;stroke-miterlimit:1.5;">
    <g transform="matrix(1,0,0,1,-749.697,-705.372)">
        <g transform="matrix(-0.8238,0.285877,0.314196,0.74955,1201.96,335.673)">
            <path d="M599.224,369.8C597.35,369.8 597.184,367.938 598.13,366.519C598.744,365.598 599.543,365.482 600.5,365.243C601.531,364.985 604.229,365.713 603.507,367.157C603.037,368.098 601.927,368.524 600.682,368.524C600.682,368.524 600.371,369.8 599.224,369.8Z" style="fill:none;stroke:black;stroke-width:1.23px;"/>
        </g>
        <g transform="matrix(-0.8238,0.285877,0.314196,0.74955,1201.96,335.673)">
            <path d="M591.278,372.772C591.936,370.607 592.457,368.808 594.667,367.704C595.276,367.399 598.13,366.873 598.13,367.886" style="fill:none;stroke:black;stroke-width:1.23px;"/>
        </g>
        <g transform="matrix(-0.8238,0.285877,0.314196,0.74955,1201.96,335.673)">
            <path d="M601.475,374.023C601.43,374.001 601.32,375.568 601.32,375.997C601.32,377.864 601.049,379.836 599.406,381.01C597.823,382.14 594.578,383.191 592.516,383.416C591.244,383.555 589.566,381.975 589.745,381.648" style="fill:none;stroke:black;stroke-width:1.23px;"/>
        </g>
        <g transform="matrix(-0.8238,0.285877,0.314196,0.74955,1201.96,335.673)">
            <path d="M601.773,374.148C601.773,374.148 605.947,377.602 607.153,377C608.297,376.427 608.246,375.038 608.246,373.901C608.246,371.001 606.757,368.22 604.783,366.245C603.806,365.268 603.305,366.519 602.778,366.519" style="fill:none;stroke:black;stroke-width:1.23px;"/>
        </g>
        <g transform="matrix(-0.8238,0.285877,0.314196,0.74955,1201.96,335.673)">
            <path d="M606.435,366.706C606.435,366.706 608.695,363.239 609.066,362.782C611.807,359.409 614.881,354.738 619.183,353.304" style="fill:none;stroke:black;stroke-width:1.23px;"/>
        </g>
        <g transform="matrix(-0.8238,0.285877,0.314196,0.74955,1201.96,335.673)">
            <path d="M607.289,368.979C607.289,368.979 608.814,367.119 609.066,366.883C611.043,365.039 613.228,363.083 615.719,361.962C616.616,361.558 619.68,359.887 619.68,359.887" style="fill:none;stroke:black;stroke-width:1.23px;"/>
        </g>
        <g transform="matrix(-0.8238,0.285877,0.314196,0.74955,1201.96,335.673)">
            <path d="M592.559,378.39C592.559,378.39 588.673,378.692 586.614,379.266C583.606,380.105 581.786,381.04 579.538,383.288" style="fill:none;stroke:black;stroke-width:1.23px;"/>
        </g>
        <g transform="matrix(-0.8238,0.285877,0.314196,0.74955,1201.96,335.673)">
            <path d="M591.89,376.284C591.89,376.284 587.513,376.138 586.1,376.27C583.37,376.527 581.306,376.89 579.082,378.002C578.543,378.272 575.984,380.007 575.984,380.007" style="fill:none;stroke:black;stroke-width:1.23px;"/>
        </g>
        <g transform="matrix(-0.8238,0.285877,0.314196,0.74955,1201.96,335.673)">
            <path d="M586.046,358.431C586.046,358.431 583.534,359.787 584.186,362.418C584.891,365.265 585.732,366.746 588.011,369.22" style="fill:none;stroke:black;stroke-width:1.23px;"/>
        </g>
        <g transform="matrix(-0.785467,0.3787,0.398294,0.708453,1148.74,295.927)">
            <path d="M590.999,367.18C590.177,367.787 589.328,366.333 588.338,364.508C587.652,363.242 587.18,361.459 588.105,361.051C588.743,360.769 590.09,362.856 590.308,363.295C590.872,364.429 591.944,366.483 590.999,367.18Z" style="fill:none;stroke:black;stroke-width:1.23px;"/>
        </g>
        <g transform="matrix(-0.8238,0.285877,0.314196,0.74955,1201.96,335.673)">
            <path d="M598.614,353.621C597.875,353.886 595.744,355.443 596.616,358.865C597.078,360.679 598.859,363.785 598.859,363.785" style="fill:none;stroke:black;stroke-width:1.23px;"/>
        </g>
        <g transform="matrix(-0.849597,0.19636,0.232439,0.778792,1246.85,378.942)">
            <path d="M601.417,362.82C600.753,362.924 599.97,362.008 599.554,359.514C599.437,358.811 598.849,356.301 600.138,356.058C601.475,355.807 601.652,358.595 601.965,359.743C602.3,360.974 602.403,362.665 601.417,362.82Z" style="fill:none;stroke:black;stroke-width:1.23px;"/>
        </g>
        <g transform="matrix(1,0,0,1,577.391,341.585)">
            <path d="M281.201,401.926C278.586,400.92 270.564,399.115 269.447,399.115C263.637,399.115 256.525,398.447 250.746,399.467C242.579,400.908 232.733,405.644 227.541,412.913C223.303,418.847 223.165,427.707 220.386,434.377C218.05,439.985 214.068,450.747 219.875,455.586C233.556,466.987 252.488,465.619 269.192,463.763C275.099,463.107 277.179,462.405 282.905,460.497C287.715,458.893 294.859,450.941 297.47,446.698C300.562,441.675 299.588,431.843 299.259,426.256C298.371,411.166 293.567,406.682 281.201,401.926Z" style="fill:none;stroke:black;stroke-width:1px;"/>
        </g>
        <g transform="matrix(0.816081,0,0,1,627.173,341.585)">
            <path d="M271.548,399.235C271.548,399.235 279.43,387.911 284,385.022C286.626,383.362 290.823,380.165 296.828,377.541C303.714,374.532 312.676,372.162 319.275,371.774C326.005,371.378 331.506,370.535 335.884,376.373C340.532,382.57 330.468,388.389 325.918,389.149C320.718,390.018 312.28,392.06 301.552,395.636C298.39,396.69 288.942,400.591 285.98,402.296" style="fill:none;stroke:black;stroke-width:1.1px;"/>
        </g>
        <g transform="matrix(0.892176,0,0,1,606.134,344.699)">
            <path d="M259.294,395.314C257.688,386.446 266.763,378.262 269.124,375.768C273.632,371.003 294.974,361.059 297.686,361.174C304.989,361.482 309.47,366.196 302.577,371.363" style="fill:none;stroke:black;stroke-width:1.06px;"/>
        </g>
        <g transform="matrix(1,0,0,1,577.391,341.585)">
            <path d="M218.157,440.456C217.587,440.01 215.272,430.456 211.698,427.478C204.406,421.401 192.487,433.316 195.089,440.255C197.026,445.42 200.018,448.444 203.266,452.775C206.137,456.603 207.98,460.99 210.932,464.785C214.984,469.995 223.636,477.069 227.495,480.928C231.618,485.051 227.454,489.145 237.122,503.263" style="fill:none;stroke:black;stroke-width:1px;"/>
        </g>
        <g transform="matrix(1,0,0,1,577.391,341.585)">
            <path d="M290.808,459.623C291.12,459.009 311.302,469.084 315.697,470.918C324.068,474.409 333.404,473.833 333.79,487.989C333.98,494.924 328.296,493.915 326.685,493.915C319.161,493.915 292.542,484.431 293.157,484.431" style="fill:none;stroke:black;stroke-width:1px;"/>
        </g>
        <g transform="matrix(1,0,0,1,577.391,341.585)">
            <path d="M296.369,485.55C296.369,485.55 299.024,497.079 299.024,498.183" style="fill:none;stroke:black;stroke-width:1px;"/>
        </g>
        <g transform="matrix(1,0,0,1,577.391,341.585)">
            <path d="M272.719,536.995C272.719,536.995 279.902,536.891 281.729,534.986C285.406,531.152 281.253,525.309 278.254,522.905C271.819,517.747 259.418,520.265 258.204,529.433C257.879,531.885 258.404,534.45 259.228,536.782C265.464,554.446 300.648,550.463 299.747,530.521C298.515,503.261 258.582,502.484 247.563,523.48C240.831,536.31 249.656,550.459 260.443,557.604C274.152,566.685 294.303,566.699 307.008,555.805C320.259,544.442 319.694,522.523 309.582,509.263C296.947,492.695 271.887,480.036 251.739,490.795C232.154,501.252 216.627,536.016 239.427,551.405C242.553,553.515 254.145,559.934 257.773,560.967C264.996,563.023 278.201,563.939 278.201,563.939" style="fill:none;stroke:black;stroke-width:1px;"/>
        </g>
        <g transform="matrix(1,0,0,1,577.391,341.585)">
            <path d="M174.519,515.205L213.942,515.491" style="fill:none;stroke:black;stroke-width:1px;"/>
        </g>
        <g transform="matrix(1,0,0,1,724.15,284.517)">
            <path d="M174.519,515.205L213.942,515.491" style="fill:none;stroke:black;stroke-width:1px;"/>
        </g>
        <g transform="matrix(0.760297,-0.0017387,-0.0017387,0.999987,783.263,270.622)">
            <path d="M174.519,515.205L213.942,515.491" style="fill:none;stroke:black;stroke-width:1.13px;"/>
        </g>
        <g transform="matrix(0.810459,-0.00137485,-0.00137485,0.99999,758.06,234.566)">
            <path d="M174.519,515.205L213.942,515.491" style="fill:none;stroke:black;stroke-width:1.1px;"/>
        </g>
        <g transform="matrix(0.755148,-0.00177605,-0.00177605,0.999987,619.325,310.64)">
            <path d="M174.519,515.205L213.942,515.491" style="fill:none;stroke:black;stroke-width:1.13px;"/>
        </g>
        <g transform="matrix(0.755148,-0.00177605,-0.00177605,0.999987,640.6,215.434)">
            <path d="M174.519,515.205L213.942,515.491" style="fill:none;stroke:black;stroke-width:1.13px;"/>
        </g>
        <g transform="matrix(0.755148,-0.00177605,-0.00177605,0.999987,626.333,224.874)">
            <path d="M174.519,515.205L213.942,515.491" style="fill:none;stroke:black;stroke-width:1.13px;"/>
        </g>
        <g transform="matrix(0.676232,-0.00234847,-0.00234847,0.999983,658.14,368.284)">
            <path d="M174.519,515.205L213.942,515.491" style="fill:none;stroke:black;stroke-width:1.17px;"/>
        </g>
        <g transform="matrix(1,0,0,1,577.391,341.585)">
            <g transform="matrix(1,0,0,0.873843,-12.4769,64.6849)">
                <path d="M379.374,504.97C386.788,507.007 392.072,512.259 392.072,518.411C392.072,523.627 388.272,528.197 382.595,530.707" style="fill:none;stroke:black;stroke-width:1.06px;"/>
            </g>
            <g transform="matrix(0.914371,-0.404877,0.353799,0.799017,-172.505,238.606)">
                <path d="M372.538,504.066C383.319,504.066 392.072,510.494 392.072,518.411C392.072,522.991 389.141,527.073 384.583,529.7" style="fill:none;stroke:black;stroke-width:1.06px;"/>
            </g>
            <g transform="matrix(0.91413,0.405421,-0.354275,0.798806,197.212,-33.5223)">
                <path d="M385.642,507.776C389.59,510.402 392.072,514.195 392.072,518.411C392.072,526.327 383.319,532.755 372.538,532.755" style="fill:none;stroke:black;stroke-width:1.06px;"/>
            </g>
        </g>
        <g transform="matrix(0.881683,0,0,0.802216,607.806,430.909)">
            <path d="M242.797,449.641C243.076,450.375 242.871,454.772 242.705,456.193C242.622,456.901 242.645,457.774 243.027,458.411C244.059,460.13 245.664,458.766 246.425,457.624C247.95,455.336 247.892,452.632 247.892,450.04" style="fill:white;stroke:black;stroke-width:1.19px;"/>
        </g>
    </g>
</svg>
