<?xml version="1.0" encoding="UTF-8" standalone="no"?>
<!DOCTYPE svg PUBLIC "-//W3C//DTD SVG 1.1//EN" "http://www.w3.org/Graphics/SVG/1.1/DTD/svg11.dtd">
<svg width="100%" height="100%" viewBox="0 0 160 255" version="1.1" xmlns="http://www.w3.org/2000/svg" xmlns:xlink="http://www.w3.org/1999/xlink" xml:space="preserve" xmlns:serif="http://www.serif.com/" style="fill-rule:evenodd;clip-rule:evenodd;stroke-linecap:round;stroke-linejoin:round;stroke-miterlimit:1.5;">
    <g transform="matrix(1,0,0,1,-520.46,-668.219)">
        <g transform="matrix(-1,0,0,1,1189.58,403.107)">
            <path d="M602.086,368.56C601.029,368.261 600.371,369.8 599.224,369.8C597.35,369.8 597.184,367.938 598.13,366.519C598.744,365.598 599.543,365.482 600.5,365.243C601.531,364.985 604.229,365.713 603.507,367.157C603.037,368.098 601.927,368.524 600.682,368.524" style="fill:none;stroke:black;stroke-width:1px;"/>
        </g>
        <g transform="matrix(-1,0,0,1,1189.58,403.107)">
            <path d="M591.278,372.772C591.936,370.607 592.457,368.808 594.667,367.704C595.276,367.399 598.13,366.873 598.13,367.886" style="fill:none;stroke:black;stroke-width:1px;"/>
        </g>
        <g transform="matrix(-1,0,0,1,1189.58,403.107)">
            <path d="M601.533,373.505C601.488,373.483 601.32,375.568 601.32,375.997C601.32,377.864 601.049,379.836 599.406,381.01C597.823,382.14 594.036,383.973 592.024,383.47C591.452,383.327 589.166,382.034 589.745,381.648" style="fill:none;stroke:black;stroke-width:1px;"/>
        </g>
        <g transform="matrix(-1,0,0,1,1189.58,403.107)">
            <path d="M601.773,374.148C601.783,374.893 602.84,375.178 603.325,375.541C604.161,376.168 605.947,377.602 607.153,377C608.297,376.427 608.246,375.038 608.246,373.901C608.246,371.001 606.757,368.22 604.783,366.245C603.806,365.268 603.305,366.519 602.778,366.519" style="fill:none;stroke:black;stroke-width:1px;"/>
        </g>
        <g transform="matrix(-1,0,0,1,1189.58,403.107)">
            <path d="M606.828,367.187C606.149,366.559 608.695,363.239 609.066,362.782C611.807,359.409 614.881,354.738 619.183,353.304" style="fill:none;stroke:black;stroke-width:1px;"/>
        </g>
        <g transform="matrix(-1,0,0,1,1189.58,403.107)">
            <path d="M607.289,368.979C607.072,368.547 608.814,367.119 609.066,366.883C611.043,365.039 613.228,363.083 615.719,361.962C616.616,361.558 617.504,361.268 618.362,360.777C618.575,360.656 619.219,360.303 619,360.413" style="fill:none;stroke:black;stroke-width:1px;"/>
        </g>
        <g transform="matrix(-1,0,0,1,1189.58,403.107)">
            <path d="M592.559,378.39C592.583,378.154 589.129,378.404 588.743,378.549C585.818,379.646 581.786,381.04 579.538,383.288" style="fill:none;stroke:black;stroke-width:1px;"/>
        </g>
        <g transform="matrix(-1,0,0,1,1189.58,403.107)">
            <path d="M591.89,376.284C592.088,375.799 590.86,375.997 590.566,375.997C589.152,375.997 587.446,375.822 586.1,376.27C583.81,377.034 581.306,376.89 579.082,378.002C578.543,378.272 576.304,380.007 575.984,380.007" style="fill:none;stroke:black;stroke-width:1px;"/>
        </g>
        <g transform="matrix(-1,0,0,1,1189.58,403.107)">
            <path d="M586.046,358.431C585.15,357.63 584.186,361.896 584.186,362.418C584.186,365.351 586.142,369.617 589.472,369.617" style="fill:none;stroke:black;stroke-width:1px;"/>
        </g>
        <g transform="matrix(-1,0,0,1,1189.58,403.107)">
            <path d="M591.232,367.917C590.769,368.149 590.51,367.803 590.11,367.704C588.081,367.196 588.238,365.318 587.74,363.329C587.602,362.774 587.257,361.333 588.105,361.051C588.766,360.83 589.2,361.736 589.472,362.144C590.1,363.086 591.527,366.055 590.93,367.248C590.83,367.448 590.11,367.715 590.11,367.43" style="fill:none;stroke:black;stroke-width:1px;"/>
        </g>
        <g transform="matrix(-1,0,0,1,1189.58,403.107)">
            <path d="M598.614,353.621C598.018,353.404 597.108,355.095 596.945,355.582C596.368,357.313 596.83,360.311 597.765,361.871C597.939,362.161 598.586,364.057 598.859,363.785" style="fill:none;stroke:black;stroke-width:1px;"/>
        </g>
        <g transform="matrix(-1,0,0,1,1189.58,403.107)">
            <path d="M601.744,362.883C599.399,362.52 599.184,360.355 598.768,357.861C598.651,357.158 599.165,355.735 600.135,356.22C600.763,356.534 600.917,357.826 601.046,358.408C601.315,359.616 603.005,363.42 600.682,363.42" style="fill:none;stroke:black;stroke-width:1px;"/>
        </g>
        <g transform="matrix(1,0,0,1,422.081,-26.7342)">
            <path d="M143.551,820.271C140.046,823.412 138.158,827.278 135.924,830.629C127.2,843.715 124.29,854.045 124.29,868.965C124.29,872.355 128.229,891.063 134.562,894.439" style="fill:none;stroke:black;stroke-width:1px;"/>
        </g>
        <g transform="matrix(1,0,0,1,422.081,-26.7342)">
            <path d="M210.759,861.038C209.313,861.709 212.929,869.564 213.194,870.756C214.931,878.573 215.394,888.296 212.811,896.045C204.602,920.672 177.307,913.894 160.465,909.889" style="fill:none;stroke:black;stroke-width:1px;"/>
        </g>
        <g transform="matrix(1,0,0,1,422.081,-26.7342)">
            <path d="M188.605,882.111C186.874,878.051 184.201,876.142 182.887,875.267C178.129,872.094 172.931,870.865 167.177,871.54C161.513,872.205 156.61,874.092 154.495,879.379C154.118,880.321 150.46,885.225 151.541,885.225" style="fill:none;stroke:black;stroke-width:1px;"/>
        </g>
        <g transform="matrix(1,0,0,1,422.081,-26.7342)">
            <path d="M156.133,892.964C153.199,889.991 148.841,884.864 143.736,885.009C137.496,885.186 134.444,890.577 134.321,894.722C134.082,902.763 142.971,911.365 149.959,911.828C156.105,912.236 162.938,908.659 164.777,904.523C166.115,901.512 170.673,897.822 172.637,894.399" style="fill:none;stroke:black;stroke-width:1px;"/>
        </g>
        <g transform="matrix(1,0,0,1,422.081,-26.7342)">
            <path d="M193.296,905.186C189.629,910.569 184.374,910.897 180.2,910.619C171.64,910.047 169.935,905.459 168.657,903.066" style="fill:none;stroke:black;stroke-width:1px;"/>
        </g>
        <g transform="matrix(1,0,0,1,422.081,-26.7342)">
            <path d="M160.745,912.034C160.131,911.693 161.763,918.366 162.068,918.888C165.257,924.36 171.872,929.931 175.461,931.123C182.337,933.407 190.632,933.481 194.999,932.063" style="fill:none;stroke:black;stroke-width:1px;"/>
        </g>
        <g transform="matrix(1,0,0,1,422.081,-26.7342)">
            <path d="M191.667,933.918C190.157,933.93 191.691,941.877 192.007,942.984C193.713,948.954 205.314,952.718 209.692,945.422C212.186,941.265 215.728,925.094 209.454,921.957C206.885,920.673 204.853,921.79 202.25,919.838C200.797,918.748 195.892,913.081 194.773,913.081" style="fill:none;stroke:black;stroke-width:1px;"/>
        </g>
        <g transform="matrix(1,0,0,1,422.081,-26.7342)">
            <path d="M225.016,831.825C224.494,831.736 235.518,831.983 238.339,831.983C247.859,831.983 259.523,833.935 257.51,846.014C256.615,851.386 251.469,853.498 246.744,854.443C239.938,855.804 231.511,854.692 224.447,855.701C220.29,856.295 215.347,857.45 211.204,858.486C207.976,859.293 203.087,861.802 199.929,861.802" style="fill:none;stroke:black;stroke-width:1px;"/>
        </g>
        <g transform="matrix(1,0,0,1,422.081,-26.7342)">
            <path d="M204.39,754.163C196.21,752.284 183.584,748.04 169.856,753.924C161.115,757.67 157.407,759.596 151.809,767.434C149.684,770.409 145.445,775.609 145.067,778.834C144.82,780.945 136.048,790.254 135.882,798.213C135.644,809.61 137.582,815.811 152.237,826.953C155.411,829.367 167.155,833.959 173.064,835.655C179.138,837.397 188.975,839.692 192.852,840.161C201.378,841.192 206.747,840.808 213.362,837.973C221.846,834.337 227.586,828.03 230.331,818.424C231.759,813.425 230.907,812.02 231.106,807.316C231.431,799.629 230.929,788.178 228.844,781.819C227.384,777.365 222.129,766.895 218.5,764.302C216.354,762.77 210.035,755.46 204.39,754.163Z" style="fill:none;stroke:black;stroke-width:1px;"/>
        </g>
        <g transform="matrix(1,0,0,1,422.081,-26.7342)">
            <path d="M245.256,847.461C244.365,847.795 242.162,847.293 241.919,847.245C240.859,847.037 240.478,846.402 240.478,845.457C240.478,844.807 240.842,843.698 241.313,843.336C242.429,842.479 243.268,841.475 244.728,841.93C245.068,842.036 246.361,842.667 246.525,843.795C246.757,845.381 246.66,846.934 245.256,847.461Z" style="fill:none;stroke:black;stroke-width:1px;"/>
        </g>
        <g transform="matrix(1,0,0,1,422.081,-26.7342)">
            <path d="M248.572,839.935C247.943,840.678 246.911,841.078 246.223,840.818C245.343,840.486 244.772,839.648 245.214,838.497C245.435,837.924 246.273,837.788 246.831,837.564C247.416,837.328 247.968,837.405 248.426,837.867C248.995,838.44 248.993,839.438 248.572,839.935Z" style="fill:none;stroke:black;stroke-width:1px;"/>
        </g>
        <g transform="matrix(1,0,0,1,422.081,-26.7342)">
            <path d="M253.128,844.088C252.85,844.409 251.41,845.33 250.492,844.873C249.267,844.262 249.197,842.777 249.843,842.2C250.487,841.625 251.372,841.321 252.22,841.572C253.32,841.898 253.949,843.143 253.128,844.088Z" style="fill:none;stroke:black;stroke-width:1px;"/>
        </g>
        <g transform="matrix(1,0,0,1,422.081,-26.7342)">
            <path d="M250.396,849.113C249.992,849.513 249.596,849.801 248.785,849.499C247.975,849.197 247.769,849.338 247.399,848.225C247.038,847.135 248.495,846.051 249.74,846.436C250.517,846.677 251.174,847.506 250.907,848.343C250.81,848.644 250.617,848.894 250.396,849.113Z" style="fill:none;stroke:black;stroke-width:1px;"/>
        </g>
        <g transform="matrix(1,0,0,1,422.081,-26.7342)">
            <path d="M139.526,894.253C139.883,894.486 139.879,895.251 139.884,895.575C139.89,895.922 139.917,896.621 139.561,896.875C139.355,897.021 139.122,897.129 138.89,897.229C138.656,897.331 138.331,897.41 138.09,897.27C137.783,897.092 137.601,896.726 137.479,896.414C137.242,895.806 137.234,895.103 137.417,894.478C137.482,894.256 137.638,893.849 137.915,893.772C138.48,893.616 139.071,893.955 139.526,894.253Z" style="fill:none;stroke:black;stroke-width:1px;"/>
        </g>
        <g transform="matrix(1,0,0,1,422.081,-26.7342)">
            <path d="M143.716,893.198C143.585,893.391 142.317,893.865 141.483,893.28C141.025,892.959 140.698,892.318 140.763,891.137C140.81,890.263 141.137,889.351 142.172,889.377C142.683,889.39 143.377,889.552 143.56,889.988C143.889,890.773 143.925,891.316 143.936,892.156C143.939,892.423 143.872,892.968 143.716,893.198Z" style="fill:none;stroke:black;stroke-width:1px;"/>
        </g>
        <g transform="matrix(1,0,0,1,422.081,-26.7342)">
            <path d="M149.238,894.518C149.421,895.067 148.576,895.723 148.02,895.947C147.306,896.234 146.406,895.11 146.368,894.885C146.203,893.894 146.976,892.75 148.064,892.901C148.257,892.928 148.616,893.017 148.782,893.2C148.94,893.374 149.169,894.309 149.238,894.518Z" style="fill:none;stroke:black;stroke-width:1px;"/>
        </g>
        <g transform="matrix(1,0,0,1,422.081,-26.7342)">
            <path d="M143.538,902.38C142.311,901.606 142.165,899.996 142.015,898.654C141.983,898.363 142.208,897.415 142.41,897.172C143.441,895.933 144.029,896.096 145.213,896.097C145.83,896.098 146.282,896.694 146.802,897.098C147.421,897.579 147.515,898.876 147.37,900.083C147.23,901.252 146.865,902.337 146.535,902.513C145.681,902.969 144.309,902.868 143.538,902.38Z" style="fill:none;stroke:black;stroke-width:1px;"/>
        </g>
        <g transform="matrix(0.903156,0,0,2.82227,461.422,-1425.68)">
            <path d="M152.06,762.644C146.3,762.644 148.587,751.268 150.516,748.052C156.431,738.194 177.721,743.66 177.721,755.605" style="fill:none;stroke:black;stroke-width:0.48px;"/>
        </g>
        <g transform="matrix(0.619748,-2.11099,-0.682858,-0.200474,1021.45,1350.77)">
            <path d="M218.894,762.535C217.898,761.972 222.487,756.958 224.47,756.675C229.209,755.998 234.217,756.819 238.398,759.328C249.608,766.054 253.901,783.008 242.046,792.491C237.868,795.834 226.606,792.189 221.668,792.189" style="fill:none;stroke:black;stroke-width:0.61px;"/>
        </g>
        <g transform="matrix(1,0,0,1,422.081,-26.7342)">
            <path d="M136.747,810.711C134.587,808.443 128.244,805.2 126.129,804.143C114.348,798.252 103.346,798.388 99.678,805.58C98.904,807.097 98.423,813.115 99.53,814.548C104.837,821.414 109.82,822.293 115.38,825.815C120.132,828.824 126.067,833.295 129.923,837.152" style="fill:none;stroke:black;stroke-width:1px;"/>
        </g>
    </g>
</svg>
